<?xml version="1.0" standalone="no"?>
<!DOCTYPE svg PUBLIC "-//W3C//DTD SVG 20010904//EN"
 "http://www.w3.org/TR/2001/REC-SVG-20010904/DTD/svg10.dtd">
<svg version="1.0" xmlns="http://www.w3.org/2000/svg"
 width="1600.000000pt" height="1200.000000pt" viewBox="0 0 1600.000000 1200.000000"
 preserveAspectRatio="xMidYMid meet">
<metadata>
Created by potrace 1.16, written by Peter Selinger 2001-2019
</metadata>
<g transform="translate(0.000000,1200.000000) scale(0.100000,-0.100000)"
fill="#000000" stroke="none">
<path d="M8600 8423 l-105 -57 -435 -498 c-239 -274 -448 -514 -463 -533 l-29
-35 81 -94 82 -95 -84 -43 -83 -43 -375 332 c-206 183 -379 333 -385 333 -27
0 -226 -118 -244 -146 l-20 -29 0 78 c0 42 -3 77 -7 77 -5 0 -283 -88 -619
-195 -547 -175 -622 -201 -720 -254 l-109 -59 -3 -64 c-3 -83 23 -596 31 -605
4 -3 50 6 104 20 53 15 98 25 99 24 1 -1 6 -30 10 -65 l7 -62 -129 0 c-210 0
-382 -47 -553 -149 -45 -27 -79 -46 -77 -42 3 4 10 53 16 109 20 187 -11 358
-96 522 -112 217 -280 373 -539 501 -177 86 -408 129 -704 129 -539 0 -1086
-175 -1656 -529 -118 -74 -171 -114 -248 -190 -53 -52 -97 -102 -97 -109 0 -9
568 -981 596 -1020 1 -2 52 18 113 44 61 26 113 45 116 43 2 -3 218 -489 479
-1082 261 -592 479 -1083 483 -1091 6 -11 101 16 473 136 l465 150 111 77 111
77 -88 339 c-49 187 -89 342 -89 344 0 2 22 -27 49 -65 171 -244 449 -377 751
-360 216 12 408 84 600 227 l79 58 5 -32 c3 -18 11 -90 17 -162 6 -71 12 -131
13 -132 0 -1 197 28 436 63 l435 65 118 60 117 60 0 270 c0 163 4 269 9 267 5
-1 362 -178 793 -391 l784 -388 117 63 117 63 0 372 c0 414 -7 374 70 388 73
13 224 69 317 116 53 27 98 47 100 45 2 -2 -10 -90 -27 -196 -18 -105 -30
-194 -28 -196 3 -2 225 -39 494 -83 l489 -79 92 49 91 49 31 -55 c17 -30 45
-80 62 -110 l30 -55 77 42 c42 23 82 45 88 49 7 6 16 -36 27 -132 9 -78 18
-144 21 -147 3 -2 256 -49 562 -104 l556 -98 112 61 c61 34 112 62 113 63 2 1
-6 56 -17 122 -11 65 -20 126 -20 135 0 12 19 18 82 28 45 7 116 25 158 40
l76 28 -22 -191 c-12 -105 -21 -192 -20 -193 1 -1 166 -25 367 -55 l366 -53 7
-89 c3 -49 6 -117 6 -151 l0 -61 385 -123 386 -123 90 47 c49 25 102 53 117
62 26 15 63 122 530 1531 277 833 502 1515 500 1517 -2 1 -239 59 -527 129
l-523 127 -75 -41 c-41 -22 -78 -38 -83 -35 -4 3 -11 27 -15 55 -4 27 -12 53
-18 58 -12 10 -1192 272 -1222 272 -9 0 -66 -26 -126 -57 l-109 -58 2 -313 3
-312 -42 0 c-142 0 -356 -60 -494 -140 -46 -26 -86 -46 -89 -43 -2 2 -45 261
-95 576 l-90 572 -409 3 -409 2 -116 -61 c-64 -34 -117 -66 -119 -71 -2 -4
-153 -8 -335 -8 l-332 0 -107 -60 -106 -60 -12 -72 c-7 -40 -17 -101 -24 -136
l-11 -63 -67 53 c-159 127 -373 207 -620 230 -20 2 58 48 318 188 190 101 350
188 356 191 16 10 -489 769 -511 768 -9 0 -63 -25 -121 -56z m229 -471 c62
-84 114 -158 117 -165 3 -8 -136 -82 -376 -202 l-381 -190 -19 25 c-36 46 -34
58 12 113 455 552 503 607 519 589 9 -9 66 -86 128 -170z m2206 -624 c9 -40
165 -1067 165 -1088 0 -11 -26 -55 -58 -98 -174 -235 -246 -529 -193 -787 52
-252 217 -471 433 -576 52 -25 54 -28 64 -112 6 -57 6 -58 -17 -53 -13 3 -150
24 -304 47 -154 23 -281 43 -282 44 -2 1 -39 242 -83 535 -45 294 -82 536 -83
537 -2 1 -47 -114 -102 -255 -139 -361 -125 -330 -138 -307 -6 11 -84 177
-174 369 -89 193 -164 343 -167 335 -3 -7 -34 -200 -70 -428 -36 -227 -67
-415 -68 -416 -2 -2 -129 19 -283 46 -154 27 -283 49 -286 49 -3 0 12 107 34
237 l39 237 122 129 c66 71 122 132 124 136 1 4 -38 41 -86 84 l-89 77 97 572
96 573 292 3 c161 1 292 0 292 -2 0 -3 32 -177 70 -388 63 -338 80 -421 80
-380 0 16 149 862 156 885 5 15 24 17 209 17 204 0 205 0 210 -22z m-4726
-368 c12 -201 23 -373 24 -384 1 -11 105 126 271 360 148 209 272 382 276 386
5 7 530 -484 538 -503 2 -4 -166 -185 -372 -402 l-375 -395 317 -126 c174 -69
332 -131 350 -137 25 -8 45 -30 79 -83 65 -100 220 -250 321 -310 107 -64 241
-114 375 -140 l107 -21 0 -252 0 -253 -900 450 -900 450 0 -470 0 -470 -22 -5
c-23 -5 -355 -51 -413 -57 l-30 -3 -16 190 -16 190 43 90 c180 380 139 790
-107 1060 l-36 40 -32 380 c-17 209 -31 388 -31 397 0 15 -11 14 -104 -11
l-104 -28 -6 36 c-3 20 -6 65 -6 101 l0 65 373 111 c204 61 373 111 373 110 1
-1 12 -165 23 -366z m-2764 255 c207 -31 370 -102 525 -227 130 -105 234 -270
266 -419 41 -189 -14 -438 -142 -652 -123 -205 -340 -427 -541 -556 -29 -18
-53 -39 -53 -47 0 -8 68 -274 150 -591 83 -317 149 -577 148 -578 -18 -13
-492 -155 -497 -148 -4 4 -234 514 -511 1133 -276 619 -504 1126 -505 1128 -2
2 -58 -24 -125 -58 -68 -34 -126 -58 -130 -53 -15 16 -360 603 -360 612 0 12
138 95 259 156 325 163 716 283 1021 314 126 13 359 6 495 -14z m5133 -141
c91 -19 196 -61 281 -112 65 -39 185 -141 200 -171 8 -15 -52 -84 -359 -412
-205 -218 -366 -397 -361 -402 11 -11 147 9 226 34 85 26 169 79 247 156 60
60 68 64 85 52 11 -8 99 -86 197 -174 l178 -160 -73 -68 c-229 -213 -583 -359
-904 -374 -254 -11 -457 50 -635 192 -262 208 -343 629 -182 950 119 239 373
421 672 484 121 25 319 28 428 5z m4202 -90 c212 -43 388 -80 392 -83 4 -4 67
-289 140 -634 72 -345 135 -622 139 -615 3 7 66 261 139 563 73 303 133 551
134 552 3 3 600 -128 604 -132 3 -3 -847 -2586 -853 -2593 -3 -4 -417 117
-423 123 -2 2 -12 346 -22 765 -10 419 -20 763 -22 765 -2 2 -43 -222 -92
-498 -49 -276 -95 -539 -104 -584 -14 -79 -16 -83 -41 -83 -34 1 -429 65 -434
70 -3 3 3 82 12 175 l16 170 59 55 c128 121 260 341 306 510 80 300 13 615
-175 818 l-54 58 19 195 c11 107 20 199 20 205 0 6 -38 21 -85 34 l-85 23 0
71 c0 77 9 146 19 146 3 0 179 -34 391 -76z m-712 -599 c232 -46 418 -220 478
-445 22 -85 23 -252 1 -343 -64 -264 -273 -515 -522 -628 -126 -57 -207 -74
-350 -73 -116 0 -139 3 -210 28 -110 38 -181 84 -258 166 -113 119 -167 261
-167 441 0 372 303 745 685 842 117 30 231 34 343 12z m-4894 -341 c5 -19 4
-25 -6 -22 -7 3 -59 22 -115 44 l-103 39 103 103 102 102 6 -119 c4 -66 10
-132 13 -147z m-1889 160 c150 -35 302 -142 384 -268 252 -386 41 -974 -434
-1213 -166 -84 -377 -115 -539 -79 -317 71 -536 368 -513 696 40 551 593 985
1102 864z"/>
<path d="M3441 6530 c-74 -11 -201 -59 -201 -76 0 -42 252 -846 266 -851 18
-6 203 137 266 205 172 186 192 465 44 613 -51 52 -141 95 -226 108 -71 12
-72 12 -149 1z m161 -190 c48 -14 97 -55 114 -97 18 -43 18 -129 -1 -184 -18
-51 -103 -165 -115 -153 -4 5 -35 101 -70 214 -34 113 -65 211 -67 218 -6 15
85 17 139 2z"/>
<path d="M8218 6730 c-77 -27 -113 -50 -174 -110 -117 -116 -154 -293 -95
-450 23 -61 80 -141 126 -176 l30 -23 270 305 c149 168 274 312 280 319 15 22
-39 71 -122 112 -64 32 -83 36 -165 40 -75 3 -104 0 -150 -17z m198 -145 c24
-5 22 -9 -54 -93 -43 -48 -116 -130 -161 -182 -46 -52 -87 -96 -91 -98 -17 -6
-32 72 -27 134 5 73 36 134 93 183 40 35 68 49 129 60 38 8 55 7 111 -4z"/>
<path d="M11830 6226 c-112 -31 -195 -98 -242 -194 -30 -60 -33 -75 -33 -157
0 -79 3 -97 29 -150 118 -240 447 -296 646 -109 27 25 62 72 77 103 25 50 28
67 28 156 0 84 -3 106 -22 140 l-22 40 -1 -42 c0 -56 -15 -91 -53 -131 -99
-103 -263 -107 -361 -8 -51 51 -70 100 -64 167 8 83 74 154 170 184 l43 14
-75 -1 c-41 0 -95 -5 -120 -12z"/>
<path d="M5035 6026 c-105 -33 -198 -113 -240 -207 -24 -55 -27 -70 -23 -152
3 -103 26 -162 85 -228 83 -91 191 -133 328 -127 79 3 101 8 157 36 79 39 149
110 186 190 37 79 38 203 2 277 l-24 50 -6 -50 c-8 -64 -30 -104 -80 -147 -96
-83 -249 -76 -339 13 -49 49 -65 94 -59 165 7 79 66 148 154 179 l39 14 -70 0
c-38 0 -88 -6 -110 -13z"/>
</g>
</svg>
